<svg width="48" height="68" viewBox="0 0 48 68" xmlns="http://www.w3.org/2000/svg"><title>noun_Certificate_2568461</title><g fill="#0a1f44"><path d="M48 58.676V12.312c0-.021-.01-.04-.012-.061a1.03 1.03 0 0 0-.056-.282c-.01-.029-.017-.058-.03-.086a1.021 1.021 0 0 0-.198-.302L36.642.3a.999.999 0 0 0-.296-.2c-.028-.013-.057-.02-.086-.03a.977.977 0 0 0-.276-.058c-.02-.001-.039-.012-.06-.012H1.011A1.02 1.02 0 0 0 0 1.03v57.646c0 .57.452 1.03 1.01 1.03h27.337l-.595 7.177c-.036.435.2.846.591 1.025.39.18.85.09 1.146-.226l4.1-4.373 4.1 4.373a1 1 0 0 0 1.145.227c.391-.18.628-.591.591-1.026l-.594-7.177h8.158A1.02 1.02 0 0 0 48 58.676zM36.938 3.518l7.612 7.761h-7.612V3.518zm-3.349 51.044c-4.612 0-8.365-3.822-8.365-8.518 0-4.697 3.753-8.517 8.365-8.517 4.607 0 8.355 3.82 8.355 8.517 0 4.696-3.748 8.518-8.355 8.518zm.73 6.544a1 1 0 0 0-1.46 0l-2.852 3.042.659-7.96c.928.278 1.908.434 2.923.434 1.016 0 1.995-.156 2.923-.434l.659 7.96-2.851-3.042zm4.341-3.46l-.188-2.273a10.616 10.616 0 0 0 5.493-9.33c0-5.832-4.655-10.577-10.376-10.577-5.726 0-10.386 4.745-10.386 10.578 0 4.035 2.232 7.547 5.503 9.33l-.189 2.272H2.021V2.06h32.896v10.248c0 .57.452 1.03 1.01 1.03H45.98v44.307h-7.32z"/><path d="M37.326 42.309l-4.783 5.145-1.869-2.01a.933.933 0 0 0-1.387 0 1.111 1.111 0 0 0 0 1.49l2.562 2.757a.947.947 0 0 0 .694.309c.26 0 .51-.111.693-.309l5.477-5.89a1.111 1.111 0 0 0 0-1.492.933.933 0 0 0-1.387 0zM7.042 9h22.916C30.534 9 31 8.553 31 8c0-.553-.466-1-1.042-1H7.042C6.466 7 6 7.447 6 8c0 .553.466 1 1.042 1zm0 8h22.916c.576 0 1.042-.447 1.042-1 0-.553-.466-1-1.042-1H7.042C6.466 15 6 15.447 6 16c0 .553.466 1 1.042 1zm34.931 7H7.027C6.46 24 6 24.447 6 25c0 .553.46 1 1.027 1h34.946c.568 0 1.027-.447 1.027-1 0-.553-.46-1-1.027-1zM18 33H7a1 1 0 1 0 0 2h11a1 1 0 1 0 0-2zm0 9H7a1 1 0 1 0 0 2h11a1 1 0 1 0 0-2zm0 9H7a1 1 0 1 0 0 2h11a1 1 0 1 0 0-2z"/></g></svg>